<svg xmlns="http://www.w3.org/2000/svg" viewBox="0 0 100 100" preserveAspectRatio="none">
  <defs>
    <filter id="paper" x="-12%" y="-2%" width="124%" height="104%">
      <feTurbulence type="fractalNoise" baseFrequency="0.055 0.8" numOctaves="3" seed="19" result="fiber"/>
      <feColorMatrix in="fiber" values="0 0 0 0 0.26 0 0 0 0 0.22 0 0 0 0 0.12 0 0 0 .11 0" result="tint"/>
      <feBlend in="SourceGraphic" in2="tint" mode="multiply"/>
      <feDropShadow dx="0" dy="0" stdDeviation="1.2" flood-color="#27372d" flood-opacity=".32"/>
    </filter>
  </defs>
  <path filter="url(#paper)" fill="#e9dfc2" d="M1.1 0L.4 3.5l1.2 4.1L.7 12l.8 5.2-.9 5.1 1 4.8-.8 5.3.7 4.4-.9 5.8 1.1 4.7-.8 5.4.9 4.6-.9 5.6 1 4.2-.7 5.5.8 4.8-.8 5.2 1.1 4.3-.9 5.4L1.2 100H99l-.8-4.1.9-5.2-1-4.6.8-5.5-.9-4.4.8-5.2-.7-4.8.9-5.6-.8-4.6.9-5.4-1-4.8.9-5.5-.8-4.7.7-5.5-.8-4.9.9-5-.8-4.8.7-5.4-.8-4.7.9-5.1L98.8 0Z"/>
</svg>
